<svg width="48" height="48" viewBox="0 0 48 48" fill="none" xmlns="http://www.w3.org/2000/svg">
<g clip-path="url(#clip0_8_2)">
<path d="M48 0H0V48H48V0Z" fill="white"/>
<path d="M47.5891 0.410858H0.410858V47.5891H47.5891V0.410858Z" fill="#FC4951"/>
<path fill-rule="evenodd" clip-rule="evenodd" d="M23.4654 9.52437C26.8643 9.52437 29.9831 10.7056 32.4435 12.6805L30.59 16.649C28.7598 14.8421 26.2434 13.731 23.4701 13.731C17.8629 13.731 13.3201 18.2737 13.3201 23.8809C13.3201 28.3397 16.1961 32.1261 20.1926 33.4894L18.6239 37.3971C13.082 35.4082 9.11351 30.1091 9.11351 23.8809C9.11351 15.9533 15.5378 9.52904 23.4654 9.52904V9.52437Z" fill="white"/>
<path fill-rule="evenodd" clip-rule="evenodd" d="M35.3569 15.8319C36.9116 18.1243 37.822 20.8976 37.822 23.8763C37.822 31.8039 31.3977 38.2282 23.4701 38.2282C22.3496 38.2282 21.2571 38.0975 20.2113 37.8547L21.8033 33.8862C22.3449 33.9749 22.9005 34.0216 23.4701 34.0216C29.0773 34.0216 33.6201 29.4788 33.6201 23.8716C33.6201 22.9145 33.4847 21.9854 33.2372 21.1077L35.3569 15.8273V15.8319Z" fill="white"/>
<path fill-rule="evenodd" clip-rule="evenodd" d="M28.5824 32.6396L26.4675 37.9107C25.8559 38.0414 25.2256 38.1348 24.5859 38.1815C24.5953 38.1815 24.5999 38.1815 24.6093 38.1815L26.4581 33.5734C27.2098 33.3446 27.9195 33.0271 28.5871 32.6396H28.5824Z" fill="black" fill-opacity="0.14902"/>
<path fill-rule="evenodd" clip-rule="evenodd" d="M14.9262 35.4129C14.464 35.0674 14.0204 34.6986 13.6002 34.3017L15.3417 29.9644C15.7012 30.4453 16.1027 30.8888 16.5369 31.2997L14.8935 35.3942L14.9215 35.4176L14.9262 35.4129Z" fill="black" fill-opacity="0.14902"/>
<path fill-rule="evenodd" clip-rule="evenodd" d="M20.6361 21.089L14.8982 35.3895C16.0233 36.2299 17.2746 36.9069 18.6239 37.3878L18.8807 36.7482L25.1695 21.089H20.6408H20.6361ZM24.6046 38.1815L26.4535 33.5734L32.056 19.6183L34.1803 14.3239L35.8564 10.15H31.3837L31.3277 10.1546L30.7814 11.5179L29.1894 15.4864L21.8033 33.8815L20.2113 37.85C21.2571 38.0928 22.3402 38.2188 23.4608 38.2235C23.5821 38.2235 23.7035 38.2235 23.8249 38.2188H23.8436C23.9556 38.2142 24.0677 38.2095 24.1798 38.2048L24.2311 38.2002C24.3338 38.1955 24.4319 38.1862 24.5346 38.1815C24.5579 38.1815 24.5813 38.1768 24.6046 38.1768V38.1815Z" fill="white"/>
</g>
<defs>
<clipPath id="clip0_8_2">
<rect width="48" height="48" fill="white"/>
</clipPath>
</defs>
</svg>
